<svg xmlns="http://www.w3.org/2000/svg" version="1.1" viewBox="121.48 226.4 253.57 62.82">
<path fill="#ffffff" d="   M 213.7200 244.6139   A 19.43 18.18 0.1 0 1 194.2583 262.7600   A 19.43 18.18 0.1 0 1 174.8600 244.5461   A 19.43 18.18 0.1 0 1 194.3217 226.4000   A 19.43 18.18 0.1 0 1 213.7200 244.6139   Z   M 194.2924 254.6500   A 10.07 9.53 90.1 0 0 203.8400 244.5966   A 10.07 9.53 90.1 0 0 194.3276 234.5100   A 10.07 9.53 90.1 0 0 184.7800 244.5634   A 10.07 9.53 90.1 0 0 194.2924 254.6500   Z"/>
<path fill="#ffffff" d="   M 134.00 244.99   L 134.01 261.66   A 0.34 0.34 0.0 0 1 133.67 262.00   L 125.34 262.00   A 0.34 0.34 0.0 0 1 125.00 261.66   L 125.01 227.57   A 0.34 0.34 0.0 0 1 125.35 227.23   L 132.84 227.26   A 0.34 0.34 0.0 0 1 133.13 227.42   L 145.08 246.87   A 0.34 0.34 0.0 0 0 145.66 246.87   L 157.26 227.32   A 0.34 0.34 0.0 0 1 157.56 227.15   L 165.04 227.25   A 0.34 0.34 0.0 0 1 165.37 227.58   L 165.51 261.65   A 0.34 0.34 0.0 0 1 165.17 261.99   L 156.82 261.99   A 0.34 0.34 0.0 0 1 156.48 261.65   L 156.34 244.68   A 0.34 0.34 0.0 0 0 155.71 244.51   L 147.44 258.35   A 0.34 0.34 0.0 0 1 147.15 258.52   L 143.21 258.51   A 0.34 0.34 0.0 0 1 142.92 258.35   L 134.63 244.81   A 0.34 0.34 0.0 0 0 134.00 244.99   Z"/>
<path fill="#ffffff" d="   M 278.48 234.75   L 267.26 234.75   Q 267.01 234.75 267.01 234.50   L 267.00 227.48   Q 267.00 227.21 267.27 227.21   L 288.08 227.23   Q 288.72 227.23 288.73 227.87   Q 288.92 241.93 288.61 250.67   Q 288.30 259.35 280.85 261.78   C 275.26 263.60 268.29 262.63 263.93 258.28   Q 263.32 257.67 263.87 257.01   L 268.03 251.99   Q 268.65 251.25 269.23 252.02   C 272.19 255.98 279.08 256.26 279.04 249.97   Q 279.00 242.38 279.05 235.33   Q 279.06 234.75 278.48 234.75   Z"/>
<path fill="#ffffff" d="   M 232.83 244.15   L 232.89 261.69   A 0.31 0.31 0.0 0 1 232.58 262.00   L 223.56 261.99   A 0.31 0.31 0.0 0 1 223.25 261.68   L 223.25 227.53   A 0.31 0.31 0.0 0 1 223.56 227.22   L 231.13 227.22   A 0.31 0.31 0.0 0 1 231.37 227.33   L 246.24 245.21   A 0.31 0.31 0.0 0 0 246.79 245.01   L 246.82 227.54   A 0.31 0.31 0.0 0 1 247.13 227.23   L 255.97 227.22   A 0.31 0.31 0.0 0 1 256.28 227.53   L 256.32 261.68   A 0.31 0.31 0.0 0 1 256.01 261.99   L 248.54 261.99   A 0.31 0.31 0.0 0 1 248.30 261.88   L 233.38 243.95   A 0.31 0.31 0.0 0 0 232.83 244.15   Z"/>
<path fill="#ffffff" d="   M 314.54 254.46   C 319.49 255.11 322.35 252.26 322.44 247.61   Q 322.60 238.86 322.48 227.53   Q 322.48 227.23 322.78 227.23   L 331.74 227.22   A 0.30 0.29 89.0 0 1 332.03 227.51   Q 332.11 236.47 332.13 245.53   C 332.15 253.42 329.32 259.93 321.57 261.89   C 313.44 263.94 303.70 261.98 300.64 253.43   Q 299.33 249.78 299.42 244.41   Q 299.57 236.00 299.48 227.53   Q 299.48 227.22 299.79 227.22   L 308.96 227.22   Q 309.22 227.22 309.23 227.49   Q 309.26 236.86 309.26 246.63   C 309.26 250.18 310.61 253.93 314.54 254.46   Z"/>
<path fill="#ffffff" d="   M 353.00 253.25   L 353.00 261.75   Q 353.00 262.00 352.75 262.00   L 343.49 261.99   A 0.25 0.24 90.0 0 1 343.25 261.74   L 343.25 227.54   A 0.27 0.27 0.0 0 1 343.51 227.27   Q 353.09 227.10 360.96 227.33   C 368.58 227.55 374.82 232.48 374.57 240.60   C 374.44 244.88 372.21 248.69 368.37 250.68   Q 367.71 251.02 368.14 251.63   Q 371.73 256.71 375.03 261.79   A 0.13 0.12 -15.7 0 1 374.92 261.98   L 365.09 262.00   A 0.40 0.36 70.6 0 1 364.78 261.83   L 358.88 253.21   Q 358.54 252.71 357.93 252.71   L 353.50 252.74   Q 353.00 252.74 353.00 253.25   Z   M 352.94 235.18   L 352.96 244.78   A 0.36 0.36 0.0 0 0 353.32 245.14   L 359.34 245.13   A 5.40 4.91 -0.1 0 0 364.73 240.21   L 364.73 239.71   A 5.40 4.91 -0.1 0 0 359.32 234.81   L 353.30 234.82   A 0.36 0.36 0.0 0 0 352.94 235.18   Z"/>
<rect fill="#ffffff" x="121.48" y="277.24" width="148.86" height="11.98" rx="0.37"/>
<path fill="#ffffff" d="   M 290.08 285.25   L 292.57 277.88   A 0.52 0.51 10.2 0 1 293.09 277.53   L 293.37 277.54   A 0.46 0.46 0.0 0 1 293.78 278.15   L 291.01 286.25   Q 289.71 290.05 288.42 286.25   L 286.47 280.51   Q 286.12 279.47 285.76 280.50   L 283.75 286.37   Q 282.50 290.04 281.27 286.36   L 278.47 278.04   Q 278.38 277.77 278.64 277.67   L 279.02 277.53   A 0.55 0.54 69.6 0 1 279.73 277.86   L 282.10 284.80   Q 282.56 286.16 283.03 284.81   Q 284.20 281.45 285.39 278.16   Q 285.61 277.54 286.31 277.59   A 0.68 0.67 82.0 0 1 286.90 278.04   L 289.36 285.25   Q 289.72 286.30 290.08 285.25   Z"/>
<path fill="#ffffff" d="   M 301.25 279.12   L 301.20 281.85   A 0.26 0.26 0.0 0 0 301.46 282.11   L 306.13 282.16   A 0.26 0.26 0.0 0 1 306.38 282.39   L 306.44 282.95   A 0.26 0.26 0.0 0 1 306.19 283.23   L 301.51 283.29   A 0.26 0.26 0.0 0 0 301.26 283.54   L 301.21 286.44   A 0.26 0.26 0.0 0 0 301.47 286.70   L 306.90 286.79   A 0.26 0.26 0.0 0 1 307.15 287.02   L 307.22 287.68   A 0.26 0.26 0.0 0 1 306.96 287.97   L 300.24 288.00   A 0.26 0.26 0.0 0 1 299.98 287.74   L 299.97 277.89   A 0.26 0.26 0.0 0 1 300.23 277.63   L 306.61 277.68   A 0.26 0.26 0.0 0 1 306.87 277.91   L 306.95 278.59   A 0.26 0.26 0.0 0 1 306.69 278.88   L 301.51 278.86   A 0.26 0.26 0.0 0 0 301.25 279.12   Z"/>
<path fill="#ffffff" d="   M 321.10 283.07   C 321.54 283.28 321.77 283.66 321.90 284.12   C 323.17 288.69 316.78 288.17 313.97 287.96   Q 313.35 287.91 313.34 287.29   L 313.29 278.43   Q 313.29 277.71 314.01 277.67   Q 316.27 277.53 318.84 277.75   C 321.09 277.95 322.63 280.14 320.90 282.09   Q 320.35 282.71 321.10 283.07   Z   M 314.73 279.21   L 314.73 281.73   A 0.48 0.48 0.0 0 0 315.20 282.21   L 317.83 282.22   A 2.41 1.52 0.2 0 0 320.25 280.71   L 320.25 280.27   A 2.41 1.52 0.2 0 0 317.85 278.74   L 315.22 278.73   A 0.48 0.48 0.0 0 0 314.73 279.21   Z   M 314.74 283.66   L 314.74 286.50   A 0.40 0.40 0.0 0 0 315.14 286.91   L 318.17 286.91   A 2.61 1.59 0.1 0 0 320.78 285.33   L 320.78 284.87   A 2.61 1.59 0.1 0 0 318.17 283.27   L 315.14 283.27   A 0.40 0.40 0.0 0 0 314.74 283.66   Z"/>
<path fill="#ffffff" d="   M 353.76 282.09   L 358.42 282.18   A 0.26 0.26 0.0 0 1 358.68 282.40   L 358.74 282.94   A 0.26 0.26 0.0 0 1 358.49 283.23   L 353.79 283.28   A 0.26 0.26 0.0 0 0 353.53 283.54   L 353.50 286.45   A 0.26 0.26 0.0 0 0 353.76 286.71   L 359.37 286.80   A 0.26 0.26 0.0 0 1 359.62 287.12   L 359.48 287.74   A 0.26 0.26 0.0 0 1 359.23 287.94   L 352.36 288.00   A 0.26 0.26 0.0 0 1 352.10 287.74   L 352.09 277.99   A 0.26 0.26 0.0 0 1 352.35 277.73   L 358.98 277.66   A 0.26 0.26 0.0 0 1 359.24 277.87   L 359.38 278.53   A 0.26 0.26 0.0 0 1 359.13 278.84   L 353.77 278.88   A 0.26 0.26 0.0 0 0 353.51 279.14   L 353.50 281.83   A 0.26 0.26 0.0 0 0 353.76 282.09   Z"/>
<path fill="#ffffff" d="   M 369.05 285.64   A 0.31 0.31 0.0 0 0 369.61 285.64   L 373.09 277.87   Q 373.30 277.42 373.78 277.53   L 374.10 277.60   Q 374.46 277.69 374.31 278.03   L 370.15 287.53   A 0.93 0.93 0.0 0 1 368.45 287.53   L 364.25 278.04   Q 364.05 277.60 364.53 277.57   L 364.93 277.54   A 0.74 0.73 75.9 0 1 365.66 277.98   L 369.05 285.64   Z"/>
<path fill="#ffffff" d="   M 336.03 278.11   A 0.41 0.41 0.0 0 1 336.45 277.71   L 340.35 277.73   A 5.67 4.96 0.3 0 1 345.99 282.72   L 345.99 283.12   A 5.67 4.96 0.3 0 1 340.29 288.05   L 336.39 288.03   A 0.41 0.41 0.0 0 1 335.99 287.61   L 336.03 278.11   Z   M 337.50 279.34   L 337.46 286.16   A 0.57 0.57 0.0 0 0 338.03 286.73   L 340.55 286.75   A 4.05 3.77 0.3 0 0 344.62 283.00   L 344.62 282.58   A 4.05 3.77 0.3 0 0 340.59 278.79   L 338.07 278.77   A 0.57 0.57 0.0 0 0 337.50 279.34   Z"/>
</svg>